<svg viewBox="0 0 64 64" fill="none" xmlns="http://www.w3.org/2000/svg">
  <path d="M32 54 Q12 46 10 30 Q8 14 22 8" stroke="white" stroke-width="3" fill="none" stroke-linecap="round"/>
  <path d="M32 54 Q52 46 54 30 Q56 14 42 8" stroke="white" stroke-width="3" fill="none" stroke-linecap="round"/>
  <ellipse cx="12" cy="20" rx="5.5" ry="3.5" fill="white" transform="rotate(-45 12 20)"/>
  <ellipse cx="13" cy="34" rx="5.5" ry="3.5" fill="white" transform="rotate(-20 13 34)"/>
  <ellipse cx="20" cy="47" rx="5.5" ry="3.5" fill="white" transform="rotate(15 20 47)"/>
  <ellipse cx="52" cy="20" rx="5.5" ry="3.5" fill="white" transform="rotate(45 52 20)"/>
  <ellipse cx="51" cy="34" rx="5.5" ry="3.5" fill="white" transform="rotate(20 51 34)"/>
  <ellipse cx="44" cy="47" rx="5.5" ry="3.5" fill="white" transform="rotate(-15 44 47)"/>
  <path d="M26 56 L32 60 L38 56" stroke="white" stroke-width="2.5" fill="none" stroke-linecap="round" stroke-linejoin="round"/>
</svg>
